<svg height="2500" viewBox="0 0 167.698 300" width="1391" xmlns="http://www.w3.org/2000/svg">
  <!-- Blue background -->
  <path d="m0 7.488h166.924v272.515h-166.924zm0 0" fill="#009ee8"/>
  
  <!-- Orange bottom bar -->
  <path d="m0 299.822h166.92v-19.814h-166.92v19.992zm0 0" fill="#FF8C00"/>
  
  <!-- ORANGE DAILY text at bottom -->
  <text x="83.5" y="295" font-family="Arial Black, Arial, sans-serif" font-size="11" font-weight="900" fill="white" text-anchor="middle" letter-spacing="1">ORANGE DAILY</text>
  
  <!-- Orange fruit body (changed from red #e60011 to orange #FF8C00) -->
  <path d="m27.908 106.876c3.391 18.456 20.206 44.843 32.652 40.276 7.305-2.68 7.305 5.361 17.134 5.048 5.83-.183 6.662-1.667 9.995-3.747 15.446 11.679 43.046-16.339 55.853-44.21 24.156-52.581-29.481-73.853-53.423-59.49-5.272-8.662-32.459-18.089-53.172-1.906 0 0 8.403 28.738-5.214 45.658 1.65 10.727-3.825 18.371-3.825 18.371" fill="#FF8C00"/>
  
  <!-- Bite mark / highlight -->
  <path d="m40.877 45.485c25.985 7.906 21.057 49.567-8.287 58.758 2.633-4.896 3.13-9.494 2.257-14.693 8.287-8.659 10.173-30.887 6.03-44.065" fill="#fff"/>
  
  <!-- Green leaf/stem -->
  <path d="m104.786 35.902c11.125.769 21.601 2.718 21.601 2.718l21.836 5.653s-4.974-8.256-14.421-13.486c-9.374-5.189-27.307 3.224-29.016 5.115m-76.319-15.226c23.728 5.272 49.713 11.314 49.713 11.314l25.243-2.132s-14.678-16.842-30.453-23.342c-10.038-4.139-32.072 3.61-44.503 14.16" fill="#6eb83f"/>
  <path d="m107.79 0 10.049 9.008-24.94 51.61-3.464-1.385zm0 0" fill="#6eb83f"/>
  
  <!-- Small highlight -->
  <path d="m79.287 53.093 14.72 10.2 8.26-8.695-8.678 4.123zm0 0" fill="#fff"/>
  
  <!-- Chinese characters (keeping 日報 structure, but these are the original paths) -->
  <g fill="#fff" fill-rule="evenodd">
    <path d="m76.382 233.316 1.228-.392.58-1.008-8.146-7.08-1.792 2.57-13.12-.047.01-16.005 9.15.005v4.933l-6.72.01s.846 3.444 2.126 8.283c6.553-.126 10.931.214 12.906-3.533 1.986-.94 1.699-14.28 1.699-14.28l1.63-2.127-9.03-4.488-1.87 2.79h-19.762v64.52l9.918-.02-.047-5.157 4.807 6.27 5.021-9.625 6.647 8.716 6.239-8.089s-8.33-9.677-8.308-9.724c4.734-10.012 6.834-16.522 6.834-16.522m-21.115 23.973-.01-11.506 2.926 5.346zm7.383-15.576-3.223-5.382h5.434zm-20.53-12.394 3.047-9.829-2.592-.862-.92 1.536h-8.255v-3.72h7.263l3.062-9.87-1.704-.523-.904 1.494-7.461.068.005-3.788 1.123-.732.34-1.431-12.248.015.01 5.936h-9.426l-2.424 8.83h11.86l-.01 3.721h-9.844l-2.65 9.155h5.78l.966 5.732h-3.945l-2.513 8.69 12.196.004v3.46h-9.777l-2.591 9.154h12.492l.01 11.156h10.503l-.036-11.156h8.637l2.88-9.844-2.535-.868-.805 1.557h-8.354v-3.39h7.593l2.879-9.688-1.761-.596-.716 1.52h-3.376l1.652-5.726zm-13.162 5.281-2.931.058-.518-5.335h4.917zm71.011-69.416-5.978-4.963s-5.016 10.361-6.803 14.003c-.032.063 6.103 5.251 6.108 5.246 3.81-7.137 6.673-14.286 6.673-14.286"/>
    <path d="m153.443 136.18-1.431-.612-.763 1.599h-14.615v-3.24h14.286l2.607-9.478-1.515-.643-.763 1.625h-14.62l-.011-2.053.878-.272.272-1.071-10.514.015.011 3.381h-11.751v-2.09l.893-.188.256-1.103h-10.529l-.01 3.381h-17.004l-1.536 8.496h18.576l-.011 2.56-3.945-.004-.016 14.803-2.409-.016-.005-9.97.936-.34.271-1.07-10.095.004.01 11.386h-2.204l-1.918 8.115h13.262v15.477l-11.799 9.646 5.58 7.869s14.245-8.355 25.468-26.288l1.302.172.125-1.285v-.517l-8.24-3.898-3.418 6.41v-7.58h8.512l2.09-8.152h-8.203l.02-2.77 4.98.005 1.855-7.22h-6.887v-3.334h4.18l-.078-4.003h11.742v3.24l-6.548.005-2.126 8.49h13.167l-.987 2.822-10.059.079v15.905l.052.021-.052.496v13.743h4.201l-10.701 7.033 6.354 6.009s3.809-2.425 6.683-4.431c2.957-2.07 6.568-4.959 6.568-4.959l-2.498-3.652h8.36l-3.427 4.133s2.362 1.964 5.659 4.64c3.6 2.915 5.063 3.783 5.063 3.783l6.38-6.694-8.319-5.862h5.79l.016-24.904 2.288-2.006-6.202-6.16h-.173l-2.314 2.831-3.982-.005.894-2.826h5.402l.074-.094.099.094h4.222zm-11.955 36.085h-11.386v-2.341h11.386zm0-7.775h-11.386v-2.341h11.386zm0-7.776h-11.386v-2.34h11.386zm-7.07 88.306h19.297l2.785-10.9-2.795-.956-1.202 1.95-24.506.036.01-2.759h21.126v-24.417l3.302-4.646-10.753-5.214-2.043 2.853-45.737.036v31.388h22.443l-.032 2.759h-25.593l-1.191 9.87h19.798s-13.606 9.907-19.892 13.758c0 0 6.093 7.765 6.145 7.734 10.053-6.35 20.744-15.509 20.744-15.509l.005 16.136h11.668l.01-15.99s8.962 8.685 20.807 14.197c0 0 6.093-8.303 7.896-8.977-10.3-3.966-22.291-11.349-22.291-11.349m-6.61-35.124h10.471v2.519h-10.47zm-11.443 2.493h-8.946l-2.508 8.804h11.454v2.477h-11.793v-13.763h11.793zm11.417 8.804h10.513v2.508h-10.513zm-66.946-98.5-1.75 2.21h-44.122v66.188l11.417-.052-.037-4.484 32.48-.052v4.5h11.783l.037-58.784 2.89-4.646zm-2.012 27.192-26.648-.016-3.95 11.355 30.577-.031v13.747l-32.422.031v-38.341l32.443.041zm0 0"/>
  </g>
</svg>