<svg xmlns="http://www.w3.org/2000/svg" viewBox="0 0 100 120">
  <!-- Trump side profile silhouette -->
  <path d="M50,10 
           C60,10 70,15 75,25 
           C78,30 80,35 78,45 
           L85,50 
           C88,52 90,55 88,60 
           L82,65 
           C80,70 78,75 80,80 
           L75,85 
           C73,90 70,95 65,100 
           L60,105 
           C55,108 50,110 45,108 
           L40,105 
           C35,100 32,95 30,90 
           L28,80 
           C26,70 28,60 30,50 
           L32,40 
           C35,30 40,20 50,10 Z
           M70,30 C72,28 75,30 73,33 C71,35 68,33 70,30
           " 
        fill="#1a1a1a" opacity="0.8"/>
  <!-- Hair poof -->
  <path d="M45,8 C55,5 65,8 72,15 C68,10 60,8 52,10 C48,11 45,10 45,8 Z" 
        fill="#1a1a1a" opacity="0.9"/>
</svg>
